<svg version="1" id="Layer_1" xmlns="http://www.w3.org/2000/svg" width="48" height="48" viewBox="0 0 48 48"><path fill="#FFF" d="M33.342 15.292c2.066 0 3.743 1.72 3.748 3.83.003 2.117-1.682 3.835-3.75 3.835-2.074 0-3.747-1.718-3.753-3.833 0-2.117 1.682-3.826 3.755-3.832m-16.85 1.87l-4.365 6.688c-.074.113-.113.247-.113.38v8.423c0 .38.306.69.683.69h22.826c.596 0 .906-.72.5-1.16l-7.096-7.733c-.27-.296-.732-.295-1.002 0l-1.63 1.792c-.277.304-.757.295-1.022-.02l-7.692-9.128c-.292-.35-.836-.316-1.087.068" opacity=".92"/><path fill-rule="evenodd" clip-rule="evenodd" fill="#FFF" d="M8.57 28.87l-2.945 2.592c-.432.37-1.098.063-1.098-.504V11.77c0-2.73 2.234-4.963 4.964-4.963h28.03c.366 0 .663-.298.663-.665v-3.19c0-.558.645-.868 1.08-.52l7.206 5.746c.332.266.333.77.002 1.038l-7.057 6.242c-.436.35-1.082.04-1.082-.518v-3.185c0-.367-.297-.664-.665-.664H9.53c-.367 0-.665.298-.665.665l-.062 16.612c0 .194-.084.378-.232.504m30.86-10.21l2.946-2.59c.43-.37 1.098-.063 1.098.505V35.76c0 2.73-2.233 4.964-4.964 4.964H10.482c-.367 0-.665.298-.665.665v3.192c0 .557-.644.866-1.08.52l-7.206-5.748c-.332-.265-.333-.77 0-1.038l7.056-6.24c.435-.35 1.08-.04 1.08.518v3.184c0 .367.3.665.666.665H38.47c.367 0 .665-.298.665-.665l.062-16.61c0-.196.085-.38.232-.507" opacity=".92"/></svg>