<?xml version="1.0" encoding="utf-8"?>
<!-- Generator: Adobe Illustrator 16.0.0, SVG Export Plug-In . SVG Version: 6.00 Build 0)  -->
<!DOCTYPE svg PUBLIC "-//W3C//DTD SVG 1.0//EN" "http://www.w3.org/TR/2001/REC-SVG-20010904/DTD/svg10.dtd">
<svg version="1.0" id="Layer_1" xmlns="http://www.w3.org/2000/svg" xmlns:xlink="http://www.w3.org/1999/xlink" x="0px" y="0px"
	 width="48px" height="48px" viewBox="0 0 48 48" enable-background="new 0 0 48 48" xml:space="preserve">
<g>
	<g>
		<g opacity="0.92">
			<g>
				<path fill="#FFFFFF" d="M33.342,15.292c2.066,0,3.743,1.72,3.748,3.831c0.003,2.116-1.682,3.834-3.75,3.834
					c-2.074,0-3.747-1.718-3.753-3.833C29.587,17.007,31.269,15.298,33.342,15.292 M16.493,17.162l-4.366,6.688
					c-0.074,0.113-0.113,0.247-0.113,0.381v8.422c0,0.381,0.306,0.691,0.683,0.691h22.826c0.596,0,0.906-0.721,0.501-1.162
					l-7.097-7.732c-0.271-0.296-0.732-0.295-1.002,0.001l-1.631,1.791c-0.276,0.304-0.756,0.295-1.021-0.02l-7.692-9.128
					C17.288,16.744,16.744,16.778,16.493,17.162"/>
			</g>
		</g>
		<g opacity="0.92">
			<g>
				<path fill-rule="evenodd" clip-rule="evenodd" fill="#FFFFFF" d="M8.571,28.871l-2.946,2.591
					c-0.432,0.37-1.098,0.063-1.098-0.504V11.771c0-2.73,2.234-4.964,4.964-4.964h28.028c0.367,0,0.664-0.298,0.664-0.665V2.951
					c0-0.557,0.645-0.867,1.08-0.52l7.206,5.747c0.333,0.266,0.334,0.771,0.003,1.038l-7.057,6.242
					c-0.436,0.35-1.082,0.04-1.082-0.518v-3.185c0-0.367-0.297-0.664-0.665-0.664H9.53c-0.367,0-0.665,0.297-0.665,0.664
					L8.803,28.367C8.803,28.561,8.719,28.745,8.571,28.871 M39.429,18.661l2.947-2.591c0.431-0.37,1.098-0.063,1.098,0.505v19.186
					c0,2.729-2.233,4.963-4.964,4.963H10.482c-0.367,0-0.665,0.298-0.665,0.665v3.193c0,0.557-0.644,0.866-1.079,0.519l-7.207-5.747
					c-0.333-0.265-0.334-0.771-0.002-1.038l7.057-6.241c0.435-0.35,1.081-0.04,1.081,0.519v3.184c0,0.367,0.298,0.665,0.665,0.665
					H38.47c0.367,0,0.665-0.298,0.665-0.665l0.062-16.611C39.197,18.972,39.282,18.787,39.429,18.661"/>
			</g>
		</g>
	</g>
</g>
</svg>
